<svg width="39" height="48" viewBox="0 0 39 48" fill="none" xmlns="http://www.w3.org/2000/svg">
<path fill-rule="evenodd" clip-rule="evenodd" d="M20.09 47.76H18.74H15.57L13.9 44.5L0 44.49L1 40.38C19.64 33.17 14.41 3.47 19.32 0.04L19.38 0L19.44 0.04C24.35 3.47 19.19 33.17 37.82 40.38L38.82 44.49L24.93 44.5L23.25 47.76H20.09Z" fill="#134093"/>
<path fill-rule="evenodd" clip-rule="evenodd" d="M19.3406 43.2401C23.1806 43.2401 26.2906 40.1301 26.2906 36.2901C26.2906 32.4501 23.1806 29.3401 19.3406 29.3401C15.5006 29.3401 12.3906 32.4501 12.3906 36.2901C12.3906 40.1301 15.5006 43.2401 19.3406 43.2401Z" fill="white"/>
<path fill-rule="evenodd" clip-rule="evenodd" d="M19.3405 29C23.3605 29 26.6205 32.26 26.6205 36.28C26.6205 40.3 23.3605 43.56 19.3405 43.56C15.3205 43.56 12.0605 40.3 12.0605 36.28C12.0605 32.27 15.3205 29 19.3405 29ZM22.2505 31.93V34.08C21.5805 33.2 20.5205 32.63 19.3305 32.63C18.1405 32.63 17.0905 33.2 16.4205 34.07V31.93C15.0205 32.87 14.0905 34.47 14.0905 36.29C14.0905 38.11 15.0205 39.71 16.4205 40.65V38.51C17.0905 39.39 18.1405 39.95 19.3305 39.95C20.5205 39.95 21.5805 39.38 22.2505 38.5V40.65C23.6505 39.71 24.5805 38.11 24.5805 36.29C24.5805 34.47 23.6605 32.87 22.2505 31.93Z" fill="#E31B0E"/>
<path fill-rule="evenodd" clip-rule="evenodd" d="M19.35 33.6899C20.69 33.6899 21.8 34.7099 21.93 36.0199H20.28C20.16 35.6099 19.78 35.3099 19.34 35.3099C18.8 35.3099 18.36 35.7499 18.36 36.2899C18.36 36.8299 18.8 37.2699 19.34 37.2699C19.79 37.2699 20.16 36.9699 20.28 36.5599H21.93C21.79 37.8699 20.69 38.8899 19.35 38.8899C17.92 38.8899 16.75 37.7299 16.75 36.2899C16.75 34.8499 17.91 33.6899 19.35 33.6899Z" fill="#E31B0E"/>
</svg>
